ISO-10303-21;
HEADER;
/* Generated by software containing ST-Developer
 * from STEP Tools, Inc. (www.steptools.com) 
 */

FILE_DESCRIPTION(
/* description */ (''),
/* implementation_level */ '2;1');

FILE_NAME(
/* name */ 'digital_carb_sync_box_lower.step',
/* time_stamp */ '2026-06-01T03:09:34+03:00',
/* author */ (''),
/* organization */ (''),
/* preprocessor_version */ 'ST-DEVELOPER v20.1',
/* originating_system */ 'Autodesk Translation Framework v15.8.0.0',
/* authorisation */ '');

FILE_SCHEMA (('AUTOMOTIVE_DESIGN { 1 0 10303 214 3 1 1 }'));
ENDSEC;

DATA;
#10=MECHANICAL_DESIGN_GEOMETRIC_PRESENTATION_REPRESENTATION('',(#13),#1379);
#11=SHAPE_REPRESENTATION_RELATIONSHIP('SRR','None',#1386,#12);
#12=ADVANCED_BREP_SHAPE_REPRESENTATION('',(#14),#1378);
#13=STYLED_ITEM('',(#1395),#14);
#14=MANIFOLD_SOLID_BREP('Body6',#753);
#15=TOROIDAL_SURFACE('',#788,3.65,1.);
#16=B_SPLINE_CURVE_WITH_KNOTS('',3,(#1164,#1165,#1166,#1167,#1168,#1169,
#1170),.UNSPECIFIED.,.F.,.F.,(4,1,1,1,4),(-0.15972689623025,-0.114090640164465,
-0.0684543840986787,-0.0342271920493394,0.),.UNSPECIFIED.);
#17=B_SPLINE_CURVE_WITH_KNOTS('',3,(#1171,#1172,#1173,#1174,#1175,#1176,
#1177),.UNSPECIFIED.,.F.,.F.,(4,1,1,1,4),(0.,0.0342271920493394,0.0684543840986787,
0.114090640164465,0.15972689623025),.UNSPECIFIED.);
#18=B_SPLINE_CURVE_WITH_KNOTS('',3,(#1223,#1224,#1225,#1226,#1227,#1228),
 .UNSPECIFIED.,.F.,.F.,(4,1,1,4),(-0.159727016249612,-0.11409072589258,
-0.0684544355355482,-6.4986887397277E-16),.UNSPECIFIED.);
#19=B_SPLINE_CURVE_WITH_KNOTS('',3,(#1229,#1230,#1231,#1232,#1233,#1234),
 .UNSPECIFIED.,.F.,.F.,(4,1,1,4),(6.4986887397277E-16,0.0684544355355482,
0.11409072589258,0.159727016249612),.UNSPECIFIED.);
#20=B_SPLINE_SURFACE_WITH_KNOTS('',3,3,((#1119,#1120,#1121,#1122,#1123,
#1124,#1125),(#1126,#1127,#1128,#1129,#1130,#1131,#1132),(#1133,#1134,#1135,
#1136,#1137,#1138,#1139),(#1140,#1141,#1142,#1143,#1144,#1145,#1146),(#1147,
#1148,#1149,#1150,#1151,#1152,#1153),(#1154,#1155,#1156,#1157,#1158,#1159,
#1160)),.UNSPECIFIED.,.F.,.F.,.F.,(4,1,1,4),(4,1,1,1,4),(0.,0.285714285714286,
0.571428571428571,1.),(0.,0.0342271920493394,0.0684543840986787,0.114090640164465,
0.15972689623025),.UNSPECIFIED.);
#21=B_SPLINE_SURFACE_WITH_KNOTS('',3,3,((#1184,#1185,#1186,#1187,#1188,
#1189),(#1190,#1191,#1192,#1193,#1194,#1195),(#1196,#1197,#1198,#1199,#1200,
#1201),(#1202,#1203,#1204,#1205,#1206,#1207),(#1208,#1209,#1210,#1211,#1212,
#1213),(#1214,#1215,#1216,#1217,#1218,#1219)),.UNSPECIFIED.,.F.,.F.,.F.,
(4,1,1,4),(4,1,1,4),(0.,0.285714285714286,0.571428571428571,1.),(6.4986887397277E-16,
0.0684544355355482,0.11409072589258,0.159727016249612),.UNSPECIFIED.);
#22=CYLINDRICAL_SURFACE('',#779,5.);
#23=CYLINDRICAL_SURFACE('',#782,5.);
#24=CYLINDRICAL_SURFACE('',#784,1.);
#25=CYLINDRICAL_SURFACE('',#793,1.);
#26=CYLINDRICAL_SURFACE('',#795,2.65);
#27=CYLINDRICAL_SURFACE('',#798,2.65);
#28=CYLINDRICAL_SURFACE('',#800,2.65);
#29=CYLINDRICAL_SURFACE('',#802,2.65);
#30=CYLINDRICAL_SURFACE('',#804,2.65000000000001);
#31=CYLINDRICAL_SURFACE('',#806,2.65);
#32=CYLINDRICAL_SURFACE('',#810,2.);
#33=CYLINDRICAL_SURFACE('',#812,1.);
#34=CYLINDRICAL_SURFACE('',#817,1.);
#35=CYLINDRICAL_SURFACE('',#821,1.);
#36=CYLINDRICAL_SURFACE('',#827,1.);
#37=CYLINDRICAL_SURFACE('',#831,2.);
#38=CYLINDRICAL_SURFACE('',#836,5.);
#39=CYLINDRICAL_SURFACE('',#838,5.);
#40=FACE_BOUND('',#92,.T.);
#41=FACE_BOUND('',#93,.T.);
#42=FACE_BOUND('',#94,.T.);
#43=FACE_BOUND('',#95,.T.);
#44=FACE_BOUND('',#96,.T.);
#45=FACE_BOUND('',#97,.T.);
#46=FACE_BOUND('',#127,.T.);
#47=FACE_BOUND('',#128,.T.);
#48=FACE_BOUND('',#129,.T.);
#49=FACE_BOUND('',#130,.T.);
#50=FACE_BOUND('',#131,.T.);
#51=FACE_BOUND('',#132,.T.);
#52=FACE_BOUND('',#135,.T.);
#53=FACE_OUTER_BOUND('',#91,.T.);
#54=FACE_OUTER_BOUND('',#98,.T.);
#55=FACE_OUTER_BOUND('',#99,.T.);
#56=FACE_OUTER_BOUND('',#100,.T.);
#57=FACE_OUTER_BOUND('',#101,.T.);
#58=FACE_OUTER_BOUND('',#102,.T.);
#59=FACE_OUTER_BOUND('',#103,.T.);
#60=FACE_OUTER_BOUND('',#104,.T.);
#61=FACE_OUTER_BOUND('',#105,.T.);
#62=FACE_OUTER_BOUND('',#106,.T.);
#63=FACE_OUTER_BOUND('',#107,.T.);
#64=FACE_OUTER_BOUND('',#108,.T.);
#65=FACE_OUTER_BOUND('',#109,.T.);
#66=FACE_OUTER_BOUND('',#110,.T.);
#67=FACE_OUTER_BOUND('',#111,.T.);
#68=FACE_OUTER_BOUND('',#112,.T.);
#69=FACE_OUTER_BOUND('',#113,.T.);
#70=FACE_OUTER_BOUND('',#114,.T.);
#71=FACE_OUTER_BOUND('',#115,.T.);
#72=FACE_OUTER_BOUND('',#116,.T.);
#73=FACE_OUTER_BOUND('',#117,.T.);
#74=FACE_OUTER_BOUND('',#118,.T.);
#75=FACE_OUTER_BOUND('',#119,.T.);
#76=FACE_OUTER_BOUND('',#120,.T.);
#77=FACE_OUTER_BOUND('',#121,.T.);
#78=FACE_OUTER_BOUND('',#122,.T.);
#79=FACE_OUTER_BOUND('',#123,.T.);
#80=FACE_OUTER_BOUND('',#124,.T.);
#81=FACE_OUTER_BOUND('',#125,.T.);
#82=FACE_OUTER_BOUND('',#126,.T.);
#83=FACE_OUTER_BOUND('',#133,.T.);
#84=FACE_OUTER_BOUND('',#134,.T.);
#85=FACE_OUTER_BOUND('',#136,.T.);
#86=FACE_OUTER_BOUND('',#137,.T.);
#87=FACE_OUTER_BOUND('',#138,.T.);
#88=FACE_OUTER_BOUND('',#139,.T.);
#89=FACE_OUTER_BOUND('',#140,.T.);
#90=FACE_OUTER_BOUND('',#141,.T.);
#91=EDGE_LOOP('',(#484,#485,#486,#487,#488,#489,#490,#491));
#92=EDGE_LOOP('',(#492));
#93=EDGE_LOOP('',(#493));
#94=EDGE_LOOP('',(#494));
#95=EDGE_LOOP('',(#495));
#96=EDGE_LOOP('',(#496));
#97=EDGE_LOOP('',(#497));
#98=EDGE_LOOP('',(#498,#499,#500,#501));
#99=EDGE_LOOP('',(#502,#503,#504,#505));
#100=EDGE_LOOP('',(#506,#507,#508,#509));
#101=EDGE_LOOP('',(#510,#511,#512,#513));
#102=EDGE_LOOP('',(#514,#515,#516,#517));
#103=EDGE_LOOP('',(#518,#519,#520,#521));
#104=EDGE_LOOP('',(#522,#523,#524,#525));
#105=EDGE_LOOP('',(#526,#527,#528,#529));
#106=EDGE_LOOP('',(#530,#531,#532,#533));
#107=EDGE_LOOP('',(#534,#535,#536,#537,#538,#539,#540,#541,#542,#543));
#108=EDGE_LOOP('',(#544,#545,#546,#547));
#109=EDGE_LOOP('',(#548,#549,#550,#551));
#110=EDGE_LOOP('',(#552,#553,#554,#555));
#111=EDGE_LOOP('',(#556,#557,#558,#559));
#112=EDGE_LOOP('',(#560,#561,#562,#563));
#113=EDGE_LOOP('',(#564,#565,#566,#567,#568,#569,#570,#571,#572,#573,#574,
#575,#576));
#114=EDGE_LOOP('',(#577,#578,#579,#580));
#115=EDGE_LOOP('',(#581,#582,#583,#584));
#116=EDGE_LOOP('',(#585,#586,#587,#588,#589,#590));
#117=EDGE_LOOP('',(#591,#592,#593,#594));
#118=EDGE_LOOP('',(#595,#596,#597,#598));
#119=EDGE_LOOP('',(#599,#600,#601,#602));
#120=EDGE_LOOP('',(#603,#604,#605,#606,#607,#608));
#121=EDGE_LOOP('',(#609,#610,#611,#612));
#122=EDGE_LOOP('',(#613,#614,#615,#616));
#123=EDGE_LOOP('',(#617,#618,#619,#620));
#124=EDGE_LOOP('',(#621,#622,#623,#624));
#125=EDGE_LOOP('',(#625,#626,#627,#628));
#126=EDGE_LOOP('',(#629,#630,#631,#632,#633,#634,#635,#636));
#127=EDGE_LOOP('',(#637,#638,#639,#640,#641,#642));
#128=EDGE_LOOP('',(#643));
#129=EDGE_LOOP('',(#644));
#130=EDGE_LOOP('',(#645));
#131=EDGE_LOOP('',(#646));
#132=EDGE_LOOP('',(#647));
#133=EDGE_LOOP('',(#648,#649,#650,#651));
#134=EDGE_LOOP('',(#652,#653,#654,#655));
#135=EDGE_LOOP('',(#656,#657,#658,#659,#660,#661,#662,#663));
#136=EDGE_LOOP('',(#664,#665,#666,#667));
#137=EDGE_LOOP('',(#668,#669,#670,#671));
#138=EDGE_LOOP('',(#672,#673,#674,#675,#676,#677,#678,#679,#680,#681,#682,
#683,#684));
#139=EDGE_LOOP('',(#685,#686,#687,#688));
#140=EDGE_LOOP('',(#689,#690,#691,#692,#693));
#141=EDGE_LOOP('',(#694,#695,#696,#697));
#142=LINE('',#1068,#204);
#143=LINE('',#1072,#205);
#144=LINE('',#1076,#206);
#145=LINE('',#1079,#207);
#146=LINE('',#1094,#208);
#147=LINE('',#1096,#209);
#148=LINE('',#1097,#210);
#149=LINE('',#1100,#211);
#150=LINE('',#1104,#212);
#151=LINE('',#1105,#213);
#152=LINE('',#1108,#214);
#153=LINE('',#1115,#215);
#154=LINE('',#1118,#216);
#155=LINE('',#1239,#217);
#156=LINE('',#1240,#218);
#157=LINE('',#1243,#219);
#158=LINE('',#1248,#220);
#159=LINE('',#1252,#221);
#160=LINE('',#1256,#222);
#161=LINE('',#1260,#223);
#162=LINE('',#1264,#224);
#163=LINE('',#1268,#225);
#164=LINE('',#1270,#226);
#165=LINE('',#1272,#227);
#166=LINE('',#1274,#228);
#167=LINE('',#1276,#229);
#168=LINE('',#1278,#230);
#169=LINE('',#1280,#231);
#170=LINE('',#1282,#232);
#171=LINE('',#1283,#233);
#172=LINE('',#1286,#234);
#173=LINE('',#1287,#235);
#174=LINE('',#1290,#236);
#175=LINE('',#1296,#237);
#176=LINE('',#1300,#238);
#177=LINE('',#1304,#239);
#178=LINE('',#1306,#240);
#179=LINE('',#1307,#241);
#180=LINE('',#1312,#242);
#181=LINE('',#1316,#243);
#182=LINE('',#1318,#244);
#183=LINE('',#1319,#245);
#184=LINE('',#1324,#246);
#185=LINE('',#1328,#247);
#186=LINE('',#1331,#248);
#187=LINE('',#1333,#249);
#188=LINE('',#1338,#250);
#189=LINE('',#1341,#251);
#190=LINE('',#1342,#252);
#191=LINE('',#1345,#253);
#192=LINE('',#1348,#254);
#193=LINE('',#1354,#255);
#194=LINE('',#1356,#256);
#195=LINE('',#1358,#257);
#196=LINE('',#1360,#258);
#197=LINE('',#1361,#259);
#198=LINE('',#1363,#260);
#199=LINE('',#1364,#261);
#200=LINE('',#1366,#262);
#201=LINE('',#1369,#263);
#202=LINE('',#1371,#264);
#203=LINE('',#1373,#265);
#204=VECTOR('',#850,10.);
#205=VECTOR('',#853,10.);
#206=VECTOR('',#856,10.);
#207=VECTOR('',#859,10.);
#208=VECTOR('',#874,10.);
#209=VECTOR('',#875,10.);
#210=VECTOR('',#876,10.);
#211=VECTOR('',#879,10.);
#212=VECTOR('',#884,10.);
#213=VECTOR('',#885,10.);
#214=VECTOR('',#888,10.);
#215=VECTOR('',#895,10.);
#216=VECTOR('',#898,10.);
#217=VECTOR('',#915,10.);
#218=VECTOR('',#916,10.);
#219=VECTOR('',#919,2.65);
#220=VECTOR('',#926,2.65);
#221=VECTOR('',#931,2.65);
#222=VECTOR('',#936,2.65);
#223=VECTOR('',#941,2.65000000000001);
#224=VECTOR('',#946,2.65);
#225=VECTOR('',#951,10.);
#226=VECTOR('',#952,10.);
#227=VECTOR('',#953,10.);
#228=VECTOR('',#954,10.);
#229=VECTOR('',#955,10.);
#230=VECTOR('',#956,10.);
#231=VECTOR('',#957,10.);
#232=VECTOR('',#958,10.);
#233=VECTOR('',#959,10.);
#234=VECTOR('',#962,10.);
#235=VECTOR('',#963,10.);
#236=VECTOR('',#966,10.);
#237=VECTOR('',#973,10.);
#238=VECTOR('',#976,10.);
#239=VECTOR('',#981,10.);
#240=VECTOR('',#982,10.);
#241=VECTOR('',#983,10.);
#242=VECTOR('',#988,10.);
#243=VECTOR('',#993,10.);
#244=VECTOR('',#994,10.);
#245=VECTOR('',#995,10.);
#246=VECTOR('',#1000,10.);
#247=VECTOR('',#1003,10.);
#248=VECTOR('',#1008,10.);
#249=VECTOR('',#1011,10.);
#250=VECTOR('',#1016,10.);
#251=VECTOR('',#1021,10.);
#252=VECTOR('',#1022,10.);
#253=VECTOR('',#1025,10.);
#254=VECTOR('',#1028,10.);
#255=VECTOR('',#1033,10.);
#256=VECTOR('',#1036,10.);
#257=VECTOR('',#1037,10.);
#258=VECTOR('',#1038,10.);
#259=VECTOR('',#1039,10.);
#260=VECTOR('',#1042,10.);
#261=VECTOR('',#1043,10.);
#262=VECTOR('',#1046,10.);
#263=VECTOR('',#1051,10.);
#264=VECTOR('',#1054,10.);
#265=VECTOR('',#1057,10.);
#266=CIRCLE('',#768,5.);
#267=CIRCLE('',#769,5.);
#268=CIRCLE('',#770,5.);
#269=CIRCLE('',#771,5.);
#270=CIRCLE('',#772,2.65);
#271=CIRCLE('',#773,2.65000000000001);
#272=CIRCLE('',#774,2.65);
#273=CIRCLE('',#775,2.65);
#274=CIRCLE('',#776,2.65);
#275=CIRCLE('',#777,2.65);
#276=CIRCLE('',#780,5.);
#277=CIRCLE('',#783,5.);
#278=CIRCLE('',#785,1.);
#279=CIRCLE('',#786,1.);
#280=CIRCLE('',#787,1.);
#281=CIRCLE('',#789,1.);
#282=CIRCLE('',#790,3.65);
#283=CIRCLE('',#791,2.65);
#284=CIRCLE('',#792,1.);
#285=CIRCLE('',#794,1.);
#286=CIRCLE('',#796,2.65);
#287=CIRCLE('',#797,2.65);
#288=CIRCLE('',#799,2.65);
#289=CIRCLE('',#801,2.65);
#290=CIRCLE('',#803,2.65);
#291=CIRCLE('',#805,2.65000000000001);
#292=CIRCLE('',#807,2.65);
#293=CIRCLE('',#811,2.);
#294=CIRCLE('',#813,1.);
#295=CIRCLE('',#814,1.);
#296=CIRCLE('',#815,1.);
#297=CIRCLE('',#818,1.);
#298=CIRCLE('',#819,1.);
#299=CIRCLE('',#822,1.);
#300=CIRCLE('',#823,1.);
#301=CIRCLE('',#824,1.);
#302=CIRCLE('',#828,1.);
#303=CIRCLE('',#829,1.);
#304=CIRCLE('',#832,2.);
#305=CIRCLE('',#834,5.);
#306=CIRCLE('',#835,5.);
#307=VERTEX_POINT('',#1064);
#308=VERTEX_POINT('',#1065);
#309=VERTEX_POINT('',#1067);
#310=VERTEX_POINT('',#1069);
#311=VERTEX_POINT('',#1071);
#312=VERTEX_POINT('',#1073);
#313=VERTEX_POINT('',#1075);
#314=VERTEX_POINT('',#1077);
#315=VERTEX_POINT('',#1080);
#316=VERTEX_POINT('',#1082);
#317=VERTEX_POINT('',#1084);
#318=VERTEX_POINT('',#1086);
#319=VERTEX_POINT('',#1088);
#320=VERTEX_POINT('',#1090);
#321=VERTEX_POINT('',#1093);
#322=VERTEX_POINT('',#1095);
#323=VERTEX_POINT('',#1099);
#324=VERTEX_POINT('',#1103);
#325=VERTEX_POINT('',#1107);
#326=VERTEX_POINT('',#1111);
#327=VERTEX_POINT('',#1112);
#328=VERTEX_POINT('',#1114);
#329=VERTEX_POINT('',#1116);
#330=VERTEX_POINT('',#1161);
#331=VERTEX_POINT('',#1162);
#332=VERTEX_POINT('',#1179);
#333=VERTEX_POINT('',#1180);
#334=VERTEX_POINT('',#1220);
#335=VERTEX_POINT('',#1221);
#336=VERTEX_POINT('',#1236);
#337=VERTEX_POINT('',#1237);
#338=VERTEX_POINT('',#1242);
#339=VERTEX_POINT('',#1247);
#340=VERTEX_POINT('',#1251);
#341=VERTEX_POINT('',#1255);
#342=VERTEX_POINT('',#1259);
#343=VERTEX_POINT('',#1263);
#344=VERTEX_POINT('',#1267);
#345=VERTEX_POINT('',#1269);
#346=VERTEX_POINT('',#1271);
#347=VERTEX_POINT('',#1273);
#348=VERTEX_POINT('',#1275);
#349=VERTEX_POINT('',#1277);
#350=VERTEX_POINT('',#1279);
#351=VERTEX_POINT('',#1281);
#352=VERTEX_POINT('',#1285);
#353=VERTEX_POINT('',#1289);
#354=VERTEX_POINT('',#1293);
#355=VERTEX_POINT('',#1295);
#356=VERTEX_POINT('',#1297);
#357=VERTEX_POINT('',#1299);
#358=VERTEX_POINT('',#1303);
#359=VERTEX_POINT('',#1305);
#360=VERTEX_POINT('',#1309);
#361=VERTEX_POINT('',#1311);
#362=VERTEX_POINT('',#1315);
#363=VERTEX_POINT('',#1317);
#364=VERTEX_POINT('',#1321);
#365=VERTEX_POINT('',#1323);
#366=VERTEX_POINT('',#1325);
#367=VERTEX_POINT('',#1327);
#368=VERTEX_POINT('',#1335);
#369=VERTEX_POINT('',#1337);
#370=VERTEX_POINT('',#1344);
#371=VERTEX_POINT('',#1346);
#372=VERTEX_POINT('',#1350);
#373=VERTEX_POINT('',#1351);
#374=VERTEX_POINT('',#1353);
#375=VERTEX_POINT('',#1357);
#376=VERTEX_POINT('',#1359);
#377=EDGE_CURVE('',#307,#308,#266,.T.);
#378=EDGE_CURVE('',#309,#307,#142,.T.);
#379=EDGE_CURVE('',#310,#309,#267,.T.);
#380=EDGE_CURVE('',#311,#310,#143,.T.);
#381=EDGE_CURVE('',#312,#311,#268,.T.);
#382=EDGE_CURVE('',#313,#312,#144,.T.);
#383=EDGE_CURVE('',#314,#313,#269,.T.);
#384=EDGE_CURVE('',#308,#314,#145,.T.);
#385=EDGE_CURVE('',#315,#315,#270,.T.);
#386=EDGE_CURVE('',#316,#316,#271,.T.);
#387=EDGE_CURVE('',#317,#317,#272,.T.);
#388=EDGE_CURVE('',#318,#318,#273,.T.);
#389=EDGE_CURVE('',#319,#319,#274,.T.);
#390=EDGE_CURVE('',#320,#320,#275,.T.);
#391=EDGE_CURVE('',#321,#312,#146,.T.);
#392=EDGE_CURVE('',#322,#321,#147,.T.);
#393=EDGE_CURVE('',#313,#322,#148,.T.);
#394=EDGE_CURVE('',#311,#323,#149,.T.);
#395=EDGE_CURVE('',#323,#321,#276,.T.);
#396=EDGE_CURVE('',#324,#310,#150,.T.);
#397=EDGE_CURVE('',#323,#324,#151,.T.);
#398=EDGE_CURVE('',#309,#325,#152,.T.);
#399=EDGE_CURVE('',#325,#324,#277,.T.);
#400=EDGE_CURVE('',#326,#327,#278,.T.);
#401=EDGE_CURVE('',#327,#328,#153,.T.);
#402=EDGE_CURVE('',#328,#329,#279,.F.);
#403=EDGE_CURVE('',#329,#326,#154,.T.);
#404=EDGE_CURVE('',#330,#331,#280,.T.);
#405=EDGE_CURVE('',#331,#327,#16,.T.);
#406=EDGE_CURVE('',#326,#330,#17,.T.);
#407=EDGE_CURVE('',#332,#333,#281,.T.);
#408=EDGE_CURVE('',#333,#331,#282,.T.);
#409=EDGE_CURVE('',#330,#332,#283,.T.);
#410=EDGE_CURVE('',#334,#335,#284,.T.);
#411=EDGE_CURVE('',#335,#333,#18,.T.);
#412=EDGE_CURVE('',#332,#334,#19,.T.);
#413=EDGE_CURVE('',#336,#337,#285,.F.);
#414=EDGE_CURVE('',#337,#335,#155,.T.);
#415=EDGE_CURVE('',#334,#336,#156,.T.);
#416=EDGE_CURVE('',#320,#338,#157,.T.);
#417=EDGE_CURVE('',#336,#338,#286,.T.);
#418=EDGE_CURVE('',#338,#329,#287,.T.);
#419=EDGE_CURVE('',#319,#339,#158,.T.);
#420=EDGE_CURVE('',#339,#339,#288,.T.);
#421=EDGE_CURVE('',#318,#340,#159,.T.);
#422=EDGE_CURVE('',#340,#340,#289,.T.);
#423=EDGE_CURVE('',#317,#341,#160,.T.);
#424=EDGE_CURVE('',#341,#341,#290,.T.);
#425=EDGE_CURVE('',#316,#342,#161,.T.);
#426=EDGE_CURVE('',#342,#342,#291,.T.);
#427=EDGE_CURVE('',#315,#343,#162,.T.);
#428=EDGE_CURVE('',#343,#343,#292,.T.);
#429=EDGE_CURVE('',#344,#328,#163,.T.);
#430=EDGE_CURVE('',#345,#344,#164,.T.);
#431=EDGE_CURVE('',#346,#345,#165,.T.);
#432=EDGE_CURVE('',#347,#346,#166,.T.);
#433=EDGE_CURVE('',#347,#348,#167,.F.);
#434=EDGE_CURVE('',#349,#348,#168,.T.);
#435=EDGE_CURVE('',#350,#349,#169,.T.);
#436=EDGE_CURVE('',#351,#350,#170,.F.);
#437=EDGE_CURVE('',#337,#351,#171,.T.);
#438=EDGE_CURVE('',#352,#327,#172,.T.);
#439=EDGE_CURVE('',#352,#344,#173,.T.);
#440=EDGE_CURVE('',#331,#353,#174,.T.);
#441=EDGE_CURVE('',#353,#352,#293,.F.);
#442=EDGE_CURVE('',#354,#349,#294,.T.);
#443=EDGE_CURVE('',#354,#355,#175,.T.);
#444=EDGE_CURVE('',#355,#356,#295,.T.);
#445=EDGE_CURVE('',#356,#357,#176,.T.);
#446=EDGE_CURVE('',#350,#357,#296,.F.);
#447=EDGE_CURVE('',#358,#356,#177,.T.);
#448=EDGE_CURVE('',#359,#358,#178,.T.);
#449=EDGE_CURVE('',#359,#357,#179,.T.);
#450=EDGE_CURVE('',#358,#360,#297,.T.);
#451=EDGE_CURVE('',#360,#361,#180,.T.);
#452=EDGE_CURVE('',#361,#359,#298,.T.);
#453=EDGE_CURVE('',#362,#360,#181,.T.);
#454=EDGE_CURVE('',#363,#362,#182,.T.);
#455=EDGE_CURVE('',#361,#363,#183,.T.);
#456=EDGE_CURVE('',#347,#364,#299,.T.);
#457=EDGE_CURVE('',#364,#365,#184,.T.);
#458=EDGE_CURVE('',#365,#366,#300,.T.);
#459=EDGE_CURVE('',#366,#367,#185,.T.);
#460=EDGE_CURVE('',#348,#367,#301,.T.);
#461=EDGE_CURVE('',#354,#367,#186,.T.);
#462=EDGE_CURVE('',#355,#366,#187,.T.);
#463=EDGE_CURVE('',#362,#368,#302,.T.);
#464=EDGE_CURVE('',#368,#369,#188,.T.);
#465=EDGE_CURVE('',#369,#363,#303,.T.);
#466=EDGE_CURVE('',#364,#369,#189,.T.);
#467=EDGE_CURVE('',#365,#368,#190,.T.);
#468=EDGE_CURVE('',#335,#370,#191,.T.);
#469=EDGE_CURVE('',#370,#371,#304,.F.);
#470=EDGE_CURVE('',#371,#333,#192,.T.);
#471=EDGE_CURVE('',#372,#373,#305,.T.);
#472=EDGE_CURVE('',#372,#374,#193,.T.);
#473=EDGE_CURVE('',#322,#374,#306,.T.);
#474=EDGE_CURVE('',#325,#373,#194,.T.);
#475=EDGE_CURVE('',#375,#371,#195,.T.);
#476=EDGE_CURVE('',#376,#375,#196,.T.);
#477=EDGE_CURVE('',#353,#376,#197,.T.);
#478=EDGE_CURVE('',#308,#372,#198,.T.);
#479=EDGE_CURVE('',#373,#307,#199,.T.);
#480=EDGE_CURVE('',#374,#314,#200,.T.);
#481=EDGE_CURVE('',#370,#351,#201,.T.);
#482=EDGE_CURVE('',#375,#346,#202,.T.);
#483=EDGE_CURVE('',#376,#345,#203,.T.);
#484=ORIENTED_EDGE('',*,*,#377,.F.);
#485=ORIENTED_EDGE('',*,*,#378,.F.);
#486=ORIENTED_EDGE('',*,*,#379,.F.);
#487=ORIENTED_EDGE('',*,*,#380,.F.);
#488=ORIENTED_EDGE('',*,*,#381,.F.);
#489=ORIENTED_EDGE('',*,*,#382,.F.);
#490=ORIENTED_EDGE('',*,*,#383,.F.);
#491=ORIENTED_EDGE('',*,*,#384,.F.);
#492=ORIENTED_EDGE('',*,*,#385,.F.);
#493=ORIENTED_EDGE('',*,*,#386,.F.);
#494=ORIENTED_EDGE('',*,*,#387,.F.);
#495=ORIENTED_EDGE('',*,*,#388,.F.);
#496=ORIENTED_EDGE('',*,*,#389,.F.);
#497=ORIENTED_EDGE('',*,*,#390,.F.);
#498=ORIENTED_EDGE('',*,*,#382,.T.);
#499=ORIENTED_EDGE('',*,*,#391,.F.);
#500=ORIENTED_EDGE('',*,*,#392,.F.);
#501=ORIENTED_EDGE('',*,*,#393,.F.);
#502=ORIENTED_EDGE('',*,*,#381,.T.);
#503=ORIENTED_EDGE('',*,*,#394,.T.);
#504=ORIENTED_EDGE('',*,*,#395,.T.);
#505=ORIENTED_EDGE('',*,*,#391,.T.);
#506=ORIENTED_EDGE('',*,*,#380,.T.);
#507=ORIENTED_EDGE('',*,*,#396,.F.);
#508=ORIENTED_EDGE('',*,*,#397,.F.);
#509=ORIENTED_EDGE('',*,*,#394,.F.);
#510=ORIENTED_EDGE('',*,*,#379,.T.);
#511=ORIENTED_EDGE('',*,*,#398,.T.);
#512=ORIENTED_EDGE('',*,*,#399,.T.);
#513=ORIENTED_EDGE('',*,*,#396,.T.);
#514=ORIENTED_EDGE('',*,*,#400,.T.);
#515=ORIENTED_EDGE('',*,*,#401,.T.);
#516=ORIENTED_EDGE('',*,*,#402,.T.);
#517=ORIENTED_EDGE('',*,*,#403,.T.);
#518=ORIENTED_EDGE('',*,*,#404,.T.);
#519=ORIENTED_EDGE('',*,*,#405,.T.);
#520=ORIENTED_EDGE('',*,*,#400,.F.);
#521=ORIENTED_EDGE('',*,*,#406,.T.);
#522=ORIENTED_EDGE('',*,*,#407,.T.);
#523=ORIENTED_EDGE('',*,*,#408,.T.);
#524=ORIENTED_EDGE('',*,*,#404,.F.);
#525=ORIENTED_EDGE('',*,*,#409,.T.);
#526=ORIENTED_EDGE('',*,*,#410,.T.);
#527=ORIENTED_EDGE('',*,*,#411,.T.);
#528=ORIENTED_EDGE('',*,*,#407,.F.);
#529=ORIENTED_EDGE('',*,*,#412,.T.);
#530=ORIENTED_EDGE('',*,*,#413,.T.);
#531=ORIENTED_EDGE('',*,*,#414,.T.);
#532=ORIENTED_EDGE('',*,*,#410,.F.);
#533=ORIENTED_EDGE('',*,*,#415,.T.);
#534=ORIENTED_EDGE('',*,*,#390,.T.);
#535=ORIENTED_EDGE('',*,*,#416,.T.);
#536=ORIENTED_EDGE('',*,*,#417,.F.);
#537=ORIENTED_EDGE('',*,*,#415,.F.);
#538=ORIENTED_EDGE('',*,*,#412,.F.);
#539=ORIENTED_EDGE('',*,*,#409,.F.);
#540=ORIENTED_EDGE('',*,*,#406,.F.);
#541=ORIENTED_EDGE('',*,*,#403,.F.);
#542=ORIENTED_EDGE('',*,*,#418,.F.);
#543=ORIENTED_EDGE('',*,*,#416,.F.);
#544=ORIENTED_EDGE('',*,*,#389,.T.);
#545=ORIENTED_EDGE('',*,*,#419,.T.);
#546=ORIENTED_EDGE('',*,*,#420,.F.);
#547=ORIENTED_EDGE('',*,*,#419,.F.);
#548=ORIENTED_EDGE('',*,*,#388,.T.);
#549=ORIENTED_EDGE('',*,*,#421,.T.);
#550=ORIENTED_EDGE('',*,*,#422,.F.);
#551=ORIENTED_EDGE('',*,*,#421,.F.);
#552=ORIENTED_EDGE('',*,*,#387,.T.);
#553=ORIENTED_EDGE('',*,*,#423,.T.);
#554=ORIENTED_EDGE('',*,*,#424,.F.);
#555=ORIENTED_EDGE('',*,*,#423,.F.);
#556=ORIENTED_EDGE('',*,*,#386,.T.);
#557=ORIENTED_EDGE('',*,*,#425,.T.);
#558=ORIENTED_EDGE('',*,*,#426,.F.);
#559=ORIENTED_EDGE('',*,*,#425,.F.);
#560=ORIENTED_EDGE('',*,*,#385,.T.);
#561=ORIENTED_EDGE('',*,*,#427,.T.);
#562=ORIENTED_EDGE('',*,*,#428,.F.);
#563=ORIENTED_EDGE('',*,*,#427,.F.);
#564=ORIENTED_EDGE('',*,*,#417,.T.);
#565=ORIENTED_EDGE('',*,*,#418,.T.);
#566=ORIENTED_EDGE('',*,*,#402,.F.);
#567=ORIENTED_EDGE('',*,*,#429,.F.);
#568=ORIENTED_EDGE('',*,*,#430,.F.);
#569=ORIENTED_EDGE('',*,*,#431,.F.);
#570=ORIENTED_EDGE('',*,*,#432,.F.);
#571=ORIENTED_EDGE('',*,*,#433,.T.);
#572=ORIENTED_EDGE('',*,*,#434,.F.);
#573=ORIENTED_EDGE('',*,*,#435,.F.);
#574=ORIENTED_EDGE('',*,*,#436,.F.);
#575=ORIENTED_EDGE('',*,*,#437,.F.);
#576=ORIENTED_EDGE('',*,*,#413,.F.);
#577=ORIENTED_EDGE('',*,*,#401,.F.);
#578=ORIENTED_EDGE('',*,*,#438,.F.);
#579=ORIENTED_EDGE('',*,*,#439,.T.);
#580=ORIENTED_EDGE('',*,*,#429,.T.);
#581=ORIENTED_EDGE('',*,*,#405,.F.);
#582=ORIENTED_EDGE('',*,*,#440,.T.);
#583=ORIENTED_EDGE('',*,*,#441,.T.);
#584=ORIENTED_EDGE('',*,*,#438,.T.);
#585=ORIENTED_EDGE('',*,*,#442,.F.);
#586=ORIENTED_EDGE('',*,*,#443,.T.);
#587=ORIENTED_EDGE('',*,*,#444,.T.);
#588=ORIENTED_EDGE('',*,*,#445,.T.);
#589=ORIENTED_EDGE('',*,*,#446,.F.);
#590=ORIENTED_EDGE('',*,*,#435,.T.);
#591=ORIENTED_EDGE('',*,*,#445,.F.);
#592=ORIENTED_EDGE('',*,*,#447,.F.);
#593=ORIENTED_EDGE('',*,*,#448,.F.);
#594=ORIENTED_EDGE('',*,*,#449,.T.);
#595=ORIENTED_EDGE('',*,*,#450,.T.);
#596=ORIENTED_EDGE('',*,*,#451,.T.);
#597=ORIENTED_EDGE('',*,*,#452,.T.);
#598=ORIENTED_EDGE('',*,*,#448,.T.);
#599=ORIENTED_EDGE('',*,*,#451,.F.);
#600=ORIENTED_EDGE('',*,*,#453,.F.);
#601=ORIENTED_EDGE('',*,*,#454,.F.);
#602=ORIENTED_EDGE('',*,*,#455,.F.);
#603=ORIENTED_EDGE('',*,*,#456,.T.);
#604=ORIENTED_EDGE('',*,*,#457,.T.);
#605=ORIENTED_EDGE('',*,*,#458,.T.);
#606=ORIENTED_EDGE('',*,*,#459,.T.);
#607=ORIENTED_EDGE('',*,*,#460,.F.);
#608=ORIENTED_EDGE('',*,*,#433,.F.);
#609=ORIENTED_EDGE('',*,*,#442,.T.);
#610=ORIENTED_EDGE('',*,*,#434,.T.);
#611=ORIENTED_EDGE('',*,*,#460,.T.);
#612=ORIENTED_EDGE('',*,*,#461,.F.);
#613=ORIENTED_EDGE('',*,*,#443,.F.);
#614=ORIENTED_EDGE('',*,*,#461,.T.);
#615=ORIENTED_EDGE('',*,*,#459,.F.);
#616=ORIENTED_EDGE('',*,*,#462,.F.);
#617=ORIENTED_EDGE('',*,*,#463,.T.);
#618=ORIENTED_EDGE('',*,*,#464,.T.);
#619=ORIENTED_EDGE('',*,*,#465,.T.);
#620=ORIENTED_EDGE('',*,*,#454,.T.);
#621=ORIENTED_EDGE('',*,*,#457,.F.);
#622=ORIENTED_EDGE('',*,*,#466,.T.);
#623=ORIENTED_EDGE('',*,*,#464,.F.);
#624=ORIENTED_EDGE('',*,*,#467,.F.);
#625=ORIENTED_EDGE('',*,*,#411,.F.);
#626=ORIENTED_EDGE('',*,*,#468,.T.);
#627=ORIENTED_EDGE('',*,*,#469,.T.);
#628=ORIENTED_EDGE('',*,*,#470,.T.);
#629=ORIENTED_EDGE('',*,*,#471,.F.);
#630=ORIENTED_EDGE('',*,*,#472,.T.);
#631=ORIENTED_EDGE('',*,*,#473,.F.);
#632=ORIENTED_EDGE('',*,*,#392,.T.);
#633=ORIENTED_EDGE('',*,*,#395,.F.);
#634=ORIENTED_EDGE('',*,*,#397,.T.);
#635=ORIENTED_EDGE('',*,*,#399,.F.);
#636=ORIENTED_EDGE('',*,*,#474,.T.);
#637=ORIENTED_EDGE('',*,*,#408,.F.);
#638=ORIENTED_EDGE('',*,*,#470,.F.);
#639=ORIENTED_EDGE('',*,*,#475,.F.);
#640=ORIENTED_EDGE('',*,*,#476,.F.);
#641=ORIENTED_EDGE('',*,*,#477,.F.);
#642=ORIENTED_EDGE('',*,*,#440,.F.);
#643=ORIENTED_EDGE('',*,*,#428,.T.);
#644=ORIENTED_EDGE('',*,*,#426,.T.);
#645=ORIENTED_EDGE('',*,*,#424,.T.);
#646=ORIENTED_EDGE('',*,*,#422,.T.);
#647=ORIENTED_EDGE('',*,*,#420,.T.);
#648=ORIENTED_EDGE('',*,*,#377,.T.);
#649=ORIENTED_EDGE('',*,*,#478,.T.);
#650=ORIENTED_EDGE('',*,*,#471,.T.);
#651=ORIENTED_EDGE('',*,*,#479,.T.);
#652=ORIENTED_EDGE('',*,*,#384,.T.);
#653=ORIENTED_EDGE('',*,*,#480,.F.);
#654=ORIENTED_EDGE('',*,*,#472,.F.);
#655=ORIENTED_EDGE('',*,*,#478,.F.);
#656=ORIENTED_EDGE('',*,*,#467,.T.);
#657=ORIENTED_EDGE('',*,*,#463,.F.);
#658=ORIENTED_EDGE('',*,*,#453,.T.);
#659=ORIENTED_EDGE('',*,*,#450,.F.);
#660=ORIENTED_EDGE('',*,*,#447,.T.);
#661=ORIENTED_EDGE('',*,*,#444,.F.);
#662=ORIENTED_EDGE('',*,*,#462,.T.);
#663=ORIENTED_EDGE('',*,*,#458,.F.);
#664=ORIENTED_EDGE('',*,*,#383,.T.);
#665=ORIENTED_EDGE('',*,*,#393,.T.);
#666=ORIENTED_EDGE('',*,*,#473,.T.);
#667=ORIENTED_EDGE('',*,*,#480,.T.);
#668=ORIENTED_EDGE('',*,*,#414,.F.);
#669=ORIENTED_EDGE('',*,*,#437,.T.);
#670=ORIENTED_EDGE('',*,*,#481,.F.);
#671=ORIENTED_EDGE('',*,*,#468,.F.);
#672=ORIENTED_EDGE('',*,*,#432,.T.);
#673=ORIENTED_EDGE('',*,*,#482,.F.);
#674=ORIENTED_EDGE('',*,*,#475,.T.);
#675=ORIENTED_EDGE('',*,*,#469,.F.);
#676=ORIENTED_EDGE('',*,*,#481,.T.);
#677=ORIENTED_EDGE('',*,*,#436,.T.);
#678=ORIENTED_EDGE('',*,*,#446,.T.);
#679=ORIENTED_EDGE('',*,*,#449,.F.);
#680=ORIENTED_EDGE('',*,*,#452,.F.);
#681=ORIENTED_EDGE('',*,*,#455,.T.);
#682=ORIENTED_EDGE('',*,*,#465,.F.);
#683=ORIENTED_EDGE('',*,*,#466,.F.);
#684=ORIENTED_EDGE('',*,*,#456,.F.);
#685=ORIENTED_EDGE('',*,*,#483,.F.);
#686=ORIENTED_EDGE('',*,*,#476,.T.);
#687=ORIENTED_EDGE('',*,*,#482,.T.);
#688=ORIENTED_EDGE('',*,*,#431,.T.);
#689=ORIENTED_EDGE('',*,*,#477,.T.);
#690=ORIENTED_EDGE('',*,*,#483,.T.);
#691=ORIENTED_EDGE('',*,*,#430,.T.);
#692=ORIENTED_EDGE('',*,*,#439,.F.);
#693=ORIENTED_EDGE('',*,*,#441,.F.);
#694=ORIENTED_EDGE('',*,*,#378,.T.);
#695=ORIENTED_EDGE('',*,*,#479,.F.);
#696=ORIENTED_EDGE('',*,*,#474,.F.);
#697=ORIENTED_EDGE('',*,*,#398,.F.);
#698=PLANE('',#767);
#699=PLANE('',#778);
#700=PLANE('',#781);
#701=PLANE('',#808);
#702=PLANE('',#809);
#703=PLANE('',#816);
#704=PLANE('',#820);
#705=PLANE('',#825);
#706=PLANE('',#826);
#707=PLANE('',#830);
#708=PLANE('',#833);
#709=PLANE('',#837);
#710=PLANE('',#839);
#711=PLANE('',#840);
#712=PLANE('',#841);
#713=PLANE('',#842);
#714=PLANE('',#843);
#715=ADVANCED_FACE('',(#53,#40,#41,#42,#43,#44,#45),#698,.T.);
#716=ADVANCED_FACE('',(#54),#699,.T.);
#717=ADVANCED_FACE('',(#55),#22,.T.);
#718=ADVANCED_FACE('',(#56),#700,.T.);
#719=ADVANCED_FACE('',(#57),#23,.T.);
#720=ADVANCED_FACE('',(#58),#24,.T.);
#721=ADVANCED_FACE('',(#59),#20,.F.);
#722=ADVANCED_FACE('',(#60),#15,.T.);
#723=ADVANCED_FACE('',(#61),#21,.F.);
#724=ADVANCED_FACE('',(#62),#25,.T.);
#725=ADVANCED_FACE('',(#63),#26,.F.);
#726=ADVANCED_FACE('',(#64),#27,.F.);
#727=ADVANCED_FACE('',(#65),#28,.F.);
#728=ADVANCED_FACE('',(#66),#29,.F.);
#729=ADVANCED_FACE('',(#67),#30,.F.);
#730=ADVANCED_FACE('',(#68),#31,.F.);
#731=ADVANCED_FACE('',(#69),#701,.F.);
#732=ADVANCED_FACE('',(#70),#702,.T.);
#733=ADVANCED_FACE('',(#71),#32,.T.);
#734=ADVANCED_FACE('',(#72),#33,.F.);
#735=ADVANCED_FACE('',(#73),#703,.F.);
#736=ADVANCED_FACE('',(#74),#34,.F.);
#737=ADVANCED_FACE('',(#75),#704,.F.);
#738=ADVANCED_FACE('',(#76),#35,.F.);
#739=ADVANCED_FACE('',(#77),#705,.F.);
#740=ADVANCED_FACE('',(#78),#706,.F.);
#741=ADVANCED_FACE('',(#79),#36,.F.);
#742=ADVANCED_FACE('',(#80),#707,.F.);
#743=ADVANCED_FACE('',(#81),#37,.T.);
#744=ADVANCED_FACE('',(#82,#46,#47,#48,#49,#50,#51),#708,.F.);
#745=ADVANCED_FACE('',(#83),#38,.T.);
#746=ADVANCED_FACE('',(#84,#52),#709,.T.);
#747=ADVANCED_FACE('',(#85),#39,.T.);
#748=ADVANCED_FACE('',(#86),#710,.T.);
#749=ADVANCED_FACE('',(#87),#711,.T.);
#750=ADVANCED_FACE('',(#88),#712,.T.);
#751=ADVANCED_FACE('',(#89),#713,.T.);
#752=ADVANCED_FACE('',(#90),#714,.T.);
#753=CLOSED_SHELL('',(#715,#716,#717,#718,#719,#720,#721,#722,#723,#724,
#725,#726,#727,#728,#729,#730,#731,#732,#733,#734,#735,#736,#737,#738,#739,
#740,#741,#742,#743,#744,#745,#746,#747,#748,#749,#750,#751,#752));
#754=DERIVED_UNIT_ELEMENT(#756,1.);
#755=DERIVED_UNIT_ELEMENT(#1381,-3.);
#756=(
MASS_UNIT()
NAMED_UNIT(*)
SI_UNIT(.KILO.,.GRAM.)
);
#757=DERIVED_UNIT((#754,#755));
#758=MEASURE_REPRESENTATION_ITEM('density measure',
POSITIVE_RATIO_MEASURE(1290.),#757);
#759=PROPERTY_DEFINITION_REPRESENTATION(#764,#761);
#760=PROPERTY_DEFINITION_REPRESENTATION(#765,#762);
#761=REPRESENTATION('material name',(#763),#1378);
#762=REPRESENTATION('density',(#758),#1378);
#763=DESCRIPTIVE_REPRESENTATION_ITEM('Plastic','Plastic');
#764=PROPERTY_DEFINITION('material property','material name',#1388);
#765=PROPERTY_DEFINITION('material property','density of part',#1388);
#766=AXIS2_PLACEMENT_3D('',#1062,#844,#845);
#767=AXIS2_PLACEMENT_3D('',#1063,#846,#847);
#768=AXIS2_PLACEMENT_3D('',#1066,#848,#849);
#769=AXIS2_PLACEMENT_3D('',#1070,#851,#852);
#770=AXIS2_PLACEMENT_3D('',#1074,#854,#855);
#771=AXIS2_PLACEMENT_3D('',#1078,#857,#858);
#772=AXIS2_PLACEMENT_3D('',#1081,#860,#861);
#773=AXIS2_PLACEMENT_3D('',#1083,#862,#863);
#774=AXIS2_PLACEMENT_3D('',#1085,#864,#865);
#775=AXIS2_PLACEMENT_3D('',#1087,#866,#867);
#776=AXIS2_PLACEMENT_3D('',#1089,#868,#869);
#777=AXIS2_PLACEMENT_3D('',#1091,#870,#871);
#778=AXIS2_PLACEMENT_3D('',#1092,#872,#873);
#779=AXIS2_PLACEMENT_3D('',#1098,#877,#878);
#780=AXIS2_PLACEMENT_3D('',#1101,#880,#881);
#781=AXIS2_PLACEMENT_3D('',#1102,#882,#883);
#782=AXIS2_PLACEMENT_3D('',#1106,#886,#887);
#783=AXIS2_PLACEMENT_3D('',#1109,#889,#890);
#784=AXIS2_PLACEMENT_3D('',#1110,#891,#892);
#785=AXIS2_PLACEMENT_3D('',#1113,#893,#894);
#786=AXIS2_PLACEMENT_3D('',#1117,#896,#897);
#787=AXIS2_PLACEMENT_3D('',#1163,#899,#900);
#788=AXIS2_PLACEMENT_3D('',#1178,#901,#902);
#789=AXIS2_PLACEMENT_3D('',#1181,#903,#904);
#790=AXIS2_PLACEMENT_3D('',#1182,#905,#906);
#791=AXIS2_PLACEMENT_3D('',#1183,#907,#908);
#792=AXIS2_PLACEMENT_3D('',#1222,#909,#910);
#793=AXIS2_PLACEMENT_3D('',#1235,#911,#912);
#794=AXIS2_PLACEMENT_3D('',#1238,#913,#914);
#795=AXIS2_PLACEMENT_3D('',#1241,#917,#918);
#796=AXIS2_PLACEMENT_3D('',#1244,#920,#921);
#797=AXIS2_PLACEMENT_3D('',#1245,#922,#923);
#798=AXIS2_PLACEMENT_3D('',#1246,#924,#925);
#799=AXIS2_PLACEMENT_3D('',#1249,#927,#928);
#800=AXIS2_PLACEMENT_3D('',#1250,#929,#930);
#801=AXIS2_PLACEMENT_3D('',#1253,#932,#933);
#802=AXIS2_PLACEMENT_3D('',#1254,#934,#935);
#803=AXIS2_PLACEMENT_3D('',#1257,#937,#938);
#804=AXIS2_PLACEMENT_3D('',#1258,#939,#940);
#805=AXIS2_PLACEMENT_3D('',#1261,#942,#943);
#806=AXIS2_PLACEMENT_3D('',#1262,#944,#945);
#807=AXIS2_PLACEMENT_3D('',#1265,#947,#948);
#808=AXIS2_PLACEMENT_3D('',#1266,#949,#950);
#809=AXIS2_PLACEMENT_3D('',#1284,#960,#961);
#810=AXIS2_PLACEMENT_3D('',#1288,#964,#965);
#811=AXIS2_PLACEMENT_3D('',#1291,#967,#968);
#812=AXIS2_PLACEMENT_3D('',#1292,#969,#970);
#813=AXIS2_PLACEMENT_3D('',#1294,#971,#972);
#814=AXIS2_PLACEMENT_3D('',#1298,#974,#975);
#815=AXIS2_PLACEMENT_3D('',#1301,#977,#978);
#816=AXIS2_PLACEMENT_3D('',#1302,#979,#980);
#817=AXIS2_PLACEMENT_3D('',#1308,#984,#985);
#818=AXIS2_PLACEMENT_3D('',#1310,#986,#987);
#819=AXIS2_PLACEMENT_3D('',#1313,#989,#990);
#820=AXIS2_PLACEMENT_3D('',#1314,#991,#992);
#821=AXIS2_PLACEMENT_3D('',#1320,#996,#997);
#822=AXIS2_PLACEMENT_3D('',#1322,#998,#999);
#823=AXIS2_PLACEMENT_3D('',#1326,#1001,#1002);
#824=AXIS2_PLACEMENT_3D('',#1329,#1004,#1005);
#825=AXIS2_PLACEMENT_3D('',#1330,#1006,#1007);
#826=AXIS2_PLACEMENT_3D('',#1332,#1009,#1010);
#827=AXIS2_PLACEMENT_3D('',#1334,#1012,#1013);
#828=AXIS2_PLACEMENT_3D('',#1336,#1014,#1015);
#829=AXIS2_PLACEMENT_3D('',#1339,#1017,#1018);
#830=AXIS2_PLACEMENT_3D('',#1340,#1019,#1020);
#831=AXIS2_PLACEMENT_3D('',#1343,#1023,#1024);
#832=AXIS2_PLACEMENT_3D('',#1347,#1026,#1027);
#833=AXIS2_PLACEMENT_3D('',#1349,#1029,#1030);
#834=AXIS2_PLACEMENT_3D('',#1352,#1031,#1032);
#835=AXIS2_PLACEMENT_3D('',#1355,#1034,#1035);
#836=AXIS2_PLACEMENT_3D('',#1362,#1040,#1041);
#837=AXIS2_PLACEMENT_3D('',#1365,#1044,#1045);
#838=AXIS2_PLACEMENT_3D('',#1367,#1047,#1048);
#839=AXIS2_PLACEMENT_3D('',#1368,#1049,#1050);
#840=AXIS2_PLACEMENT_3D('',#1370,#1052,#1053);
#841=AXIS2_PLACEMENT_3D('',#1372,#1055,#1056);
#842=AXIS2_PLACEMENT_3D('',#1374,#1058,#1059);
#843=AXIS2_PLACEMENT_3D('',#1375,#1060,#1061);
#844=DIRECTION('axis',(0.,0.,1.));
#845=DIRECTION('refdir',(1.,0.,0.));
#846=DIRECTION('center_axis',(0.,0.,-1.));
#847=DIRECTION('ref_axis',(-1.,0.,0.));
#848=DIRECTION('center_axis',(0.,0.,1.));
#849=DIRECTION('ref_axis',(-0.707106781186547,-0.707106781186547,0.));
#850=DIRECTION('',(0.,-1.,0.));
#851=DIRECTION('center_axis',(0.,0.,1.));
#852=DIRECTION('ref_axis',(-0.707106781186547,0.707106781186547,0.));
#853=DIRECTION('',(-1.,0.,0.));
#854=DIRECTION('center_axis',(0.,0.,1.));
#855=DIRECTION('ref_axis',(0.707106781186547,0.707106781186547,0.));
#856=DIRECTION('',(0.,1.,0.));
#857=DIRECTION('center_axis',(0.,0.,1.));
#858=DIRECTION('ref_axis',(0.707106781186547,-0.707106781186547,0.));
#859=DIRECTION('',(1.,0.,0.));
#860=DIRECTION('center_axis',(0.,0.,-1.));
#861=DIRECTION('ref_axis',(1.,0.,0.));
#862=DIRECTION('center_axis',(0.,0.,-1.));
#863=DIRECTION('ref_axis',(1.,0.,0.));
#864=DIRECTION('center_axis',(0.,0.,-1.));
#865=DIRECTION('ref_axis',(1.,0.,0.));
#866=DIRECTION('center_axis',(0.,0.,-1.));
#867=DIRECTION('ref_axis',(1.,0.,0.));
#868=DIRECTION('center_axis',(0.,0.,-1.));
#869=DIRECTION('ref_axis',(1.,0.,0.));
#870=DIRECTION('center_axis',(0.,0.,-1.));
#871=DIRECTION('ref_axis',(1.,0.,0.));
#872=DIRECTION('center_axis',(1.,0.,0.));
#873=DIRECTION('ref_axis',(0.,-1.,0.));
#874=DIRECTION('',(0.,0.,-1.));
#875=DIRECTION('',(0.,1.,0.));
#876=DIRECTION('',(0.,0.,1.));
#877=DIRECTION('center_axis',(0.,0.,-1.));
#878=DIRECTION('ref_axis',(0.707106781186547,0.707106781186547,0.));
#879=DIRECTION('',(0.,0.,1.));
#880=DIRECTION('center_axis',(0.,0.,-1.));
#881=DIRECTION('ref_axis',(0.707106781186547,0.707106781186547,0.));
#882=DIRECTION('center_axis',(0.,1.,0.));
#883=DIRECTION('ref_axis',(1.,0.,0.));
#884=DIRECTION('',(0.,0.,-1.));
#885=DIRECTION('',(-1.,0.,0.));
#886=DIRECTION('center_axis',(0.,0.,-1.));
#887=DIRECTION('ref_axis',(-0.707106781186547,0.707106781186547,0.));
#888=DIRECTION('',(0.,0.,1.));
#889=DIRECTION('center_axis',(0.,0.,-1.));
#890=DIRECTION('ref_axis',(-0.707106781186547,0.707106781186547,0.));
#891=DIRECTION('center_axis',(0.,0.,1.));
#892=DIRECTION('ref_axis',(-0.54913042108142,-0.835736669437773,0.));
#893=DIRECTION('center_axis',(5.5511151231258E-16,2.40048516304699E-16,
-1.));
#894=DIRECTION('ref_axis',(0.396911561285886,-0.917856858403096,0.));
#895=DIRECTION('',(0.,0.,-1.));
#896=DIRECTION('center_axis',(0.,0.,-1.));
#897=DIRECTION('ref_axis',(-0.54913042108142,-0.835736669437773,0.));
#898=DIRECTION('',(0.,0.,1.));
#899=DIRECTION('center_axis',(-0.992414234315171,-0.122938958547047,0.));
#900=DIRECTION('ref_axis',(0.122938958547047,-0.992414234315171,1.11022302462515E-15));
#901=DIRECTION('center_axis',(0.,0.,-1.));
#902=DIRECTION('ref_axis',(1.,4.43134179291246E-13,0.));
#903=DIRECTION('center_axis',(0.99241423431528,-0.122938958546168,0.));
#904=DIRECTION('ref_axis',(0.122938958546168,0.99241423431528,0.));
#905=DIRECTION('center_axis',(0.,0.,1.));
#906=DIRECTION('ref_axis',(1.,0.,0.));
#907=DIRECTION('center_axis',(0.,0.,-1.));
#908=DIRECTION('ref_axis',(1.,0.,0.));
#909=DIRECTION('center_axis',(0.,0.,1.));
#910=DIRECTION('ref_axis',(0.396911561285894,0.917856858403093,0.));
#911=DIRECTION('center_axis',(0.,0.,-1.));
#912=DIRECTION('ref_axis',(-0.54913042108142,0.835736669437773,0.));
#913=DIRECTION('center_axis',(0.,0.,-1.));
#914=DIRECTION('ref_axis',(-0.54913042108142,0.835736669437773,0.));
#915=DIRECTION('',(0.,0.,1.));
#916=DIRECTION('',(0.,0.,-1.));
#917=DIRECTION('center_axis',(0.,0.,1.));
#918=DIRECTION('ref_axis',(1.,0.,0.));
#919=DIRECTION('',(0.,0.,1.));
#920=DIRECTION('center_axis',(0.,0.,-1.));
#921=DIRECTION('ref_axis',(1.,0.,0.));
#922=DIRECTION('center_axis',(0.,0.,-1.));
#923=DIRECTION('ref_axis',(1.,0.,0.));
#924=DIRECTION('center_axis',(0.,0.,1.));
#925=DIRECTION('ref_axis',(1.,0.,0.));
#926=DIRECTION('',(0.,0.,1.));
#927=DIRECTION('center_axis',(0.,0.,-1.));
#928=DIRECTION('ref_axis',(1.,0.,0.));
#929=DIRECTION('center_axis',(0.,0.,1.));
#930=DIRECTION('ref_axis',(1.,0.,0.));
#931=DIRECTION('',(0.,0.,1.));
#932=DIRECTION('center_axis',(0.,0.,-1.));
#933=DIRECTION('ref_axis',(1.,0.,0.));
#934=DIRECTION('center_axis',(0.,0.,1.));
#935=DIRECTION('ref_axis',(1.,0.,0.));
#936=DIRECTION('',(0.,0.,1.));
#937=DIRECTION('center_axis',(0.,0.,-1.));
#938=DIRECTION('ref_axis',(1.,0.,0.));
#939=DIRECTION('center_axis',(0.,0.,1.));
#940=DIRECTION('ref_axis',(1.,0.,0.));
#941=DIRECTION('',(0.,0.,1.));
#942=DIRECTION('center_axis',(0.,0.,-1.));
#943=DIRECTION('ref_axis',(1.,0.,0.));
#944=DIRECTION('center_axis',(0.,0.,1.));
#945=DIRECTION('ref_axis',(1.,0.,0.));
#946=DIRECTION('',(0.,0.,1.));
#947=DIRECTION('center_axis',(0.,0.,-1.));
#948=DIRECTION('ref_axis',(1.,0.,0.));
#949=DIRECTION('center_axis',(0.,0.,-1.));
#950=DIRECTION('ref_axis',(-1.,0.,0.));
#951=DIRECTION('',(0.,-1.,0.));
#952=DIRECTION('',(1.,0.,0.));
#953=DIRECTION('',(0.,1.,0.));
#954=DIRECTION('',(-1.,0.,0.));
#955=DIRECTION('',(0.,-1.,0.));
#956=DIRECTION('',(-1.,0.,0.));
#957=DIRECTION('',(0.,1.,0.));
#958=DIRECTION('',(1.,0.,0.));
#959=DIRECTION('',(0.,-1.,0.));
#960=DIRECTION('center_axis',(-1.,0.,0.));
#961=DIRECTION('ref_axis',(0.,1.,0.));
#962=DIRECTION('',(0.,-1.,0.));
#963=DIRECTION('',(0.,0.,-1.));
#964=DIRECTION('center_axis',(0.,1.,0.));
#965=DIRECTION('ref_axis',(-0.707106781186546,0.,0.707106781186549));
#966=DIRECTION('',(0.,1.,0.));
#967=DIRECTION('center_axis',(0.,1.,0.));
#968=DIRECTION('ref_axis',(-0.707106781186546,0.,0.707106781186549));
#969=DIRECTION('center_axis',(0.,1.,0.));
#970=DIRECTION('ref_axis',(0.707106781186546,0.,-0.707106781186549));
#971=DIRECTION('center_axis',(0.,-1.,0.));
#972=DIRECTION('ref_axis',(0.707106781186546,0.,-0.707106781186549));
#973=DIRECTION('',(0.,-1.,0.));
#974=DIRECTION('center_axis',(0.,-1.,0.));
#975=DIRECTION('ref_axis',(0.707106781186546,0.,-0.707106781186549));
#976=DIRECTION('',(0.,1.,0.));
#977=DIRECTION('center_axis',(0.,1.,0.));
#978=DIRECTION('ref_axis',(0.707106781186546,0.,-0.707106781186549));
#979=DIRECTION('center_axis',(1.,0.,-1.11022302462516E-15));
#980=DIRECTION('ref_axis',(-1.11022302462516E-15,0.,-1.));
#981=DIRECTION('',(-1.11022302462516E-15,0.,-1.));
#982=DIRECTION('',(0.,-1.,0.));
#983=DIRECTION('',(-1.11022302462516E-15,0.,-1.));
#984=DIRECTION('center_axis',(0.,1.,0.));
#985=DIRECTION('ref_axis',(0.707106781186547,0.,0.707106781186548));
#986=DIRECTION('center_axis',(0.,-1.,0.));
#987=DIRECTION('ref_axis',(0.707106781186547,0.,0.707106781186548));
#988=DIRECTION('',(0.,1.,0.));
#989=DIRECTION('center_axis',(0.,1.,0.));
#990=DIRECTION('ref_axis',(0.707106781186547,0.,0.707106781186548));
#991=DIRECTION('center_axis',(0.,0.,1.));
#992=DIRECTION('ref_axis',(1.,0.,0.));
#993=DIRECTION('',(1.,0.,0.));
#994=DIRECTION('',(0.,-1.,0.));
#995=DIRECTION('',(-1.,0.,0.));
#996=DIRECTION('center_axis',(0.,1.,0.));
#997=DIRECTION('ref_axis',(-0.707106781186548,0.,-0.707106781186548));
#998=DIRECTION('center_axis',(0.,1.,0.));
#999=DIRECTION('ref_axis',(-0.707106781186548,0.,-0.707106781186548));
#1000=DIRECTION('',(0.,-1.,0.));
#1001=DIRECTION('center_axis',(0.,-1.,0.));
#1002=DIRECTION('ref_axis',(-0.707106781186548,0.,-0.707106781186548));
#1003=DIRECTION('',(0.,1.,0.));
#1004=DIRECTION('center_axis',(0.,-1.,0.));
#1005=DIRECTION('ref_axis',(-0.707106781186548,0.,-0.707106781186548));
#1006=DIRECTION('center_axis',(0.,1.,0.));
#1007=DIRECTION('ref_axis',(0.,0.,1.));
#1008=DIRECTION('',(-1.,0.,0.));
#1009=DIRECTION('center_axis',(0.,0.,-1.));
#1010=DIRECTION('ref_axis',(-1.,0.,0.));
#1011=DIRECTION('',(-1.,0.,0.));
#1012=DIRECTION('center_axis',(0.,1.,0.));
#1013=DIRECTION('ref_axis',(-0.707106781186548,0.,0.707106781186548));
#1014=DIRECTION('center_axis',(0.,-1.,0.));
#1015=DIRECTION('ref_axis',(-0.707106781186548,0.,0.707106781186548));
#1016=DIRECTION('',(0.,1.,0.));
#1017=DIRECTION('center_axis',(0.,1.,0.));
#1018=DIRECTION('ref_axis',(-0.707106781186548,0.,0.707106781186548));
#1019=DIRECTION('center_axis',(-1.,0.,0.));
#1020=DIRECTION('ref_axis',(0.,0.,1.));
#1021=DIRECTION('',(0.,0.,1.));
#1022=DIRECTION('',(0.,0.,1.));
#1023=DIRECTION('center_axis',(0.,1.,0.));
#1024=DIRECTION('ref_axis',(-0.707106781186546,0.,0.707106781186549));
#1025=DIRECTION('',(0.,-1.,0.));
#1026=DIRECTION('center_axis',(0.,-1.,0.));
#1027=DIRECTION('ref_axis',(-0.707106781186546,0.,0.707106781186549));
#1028=DIRECTION('',(0.,1.,0.));
#1029=DIRECTION('center_axis',(0.,0.,-1.));
#1030=DIRECTION('ref_axis',(1.,0.,0.));
#1031=DIRECTION('center_axis',(0.,0.,-1.));
#1032=DIRECTION('ref_axis',(-0.707106781186547,-0.707106781186547,0.));
#1033=DIRECTION('',(1.,0.,0.));
#1034=DIRECTION('center_axis',(0.,0.,-1.));
#1035=DIRECTION('ref_axis',(0.707106781186547,-0.707106781186547,0.));
#1036=DIRECTION('',(0.,-1.,0.));
#1037=DIRECTION('',(1.,0.,0.));
#1038=DIRECTION('',(0.,-1.,0.));
#1039=DIRECTION('',(-1.,0.,0.));
#1040=DIRECTION('center_axis',(0.,0.,-1.));
#1041=DIRECTION('ref_axis',(-0.707106781186547,-0.707106781186547,0.));
#1042=DIRECTION('',(0.,0.,1.));
#1043=DIRECTION('',(0.,0.,-1.));
#1044=DIRECTION('center_axis',(0.,-1.,0.));
#1045=DIRECTION('ref_axis',(-1.,0.,0.));
#1046=DIRECTION('',(0.,0.,-1.));
#1047=DIRECTION('center_axis',(0.,0.,-1.));
#1048=DIRECTION('ref_axis',(0.707106781186547,-0.707106781186547,0.));
#1049=DIRECTION('center_axis',(-1.,0.,0.));
#1050=DIRECTION('ref_axis',(0.,1.,0.));
#1051=DIRECTION('',(0.,0.,-1.));
#1052=DIRECTION('center_axis',(0.,1.,0.));
#1053=DIRECTION('ref_axis',(1.,0.,0.));
#1054=DIRECTION('',(0.,0.,-1.));
#1055=DIRECTION('center_axis',(1.,0.,0.));
#1056=DIRECTION('ref_axis',(0.,-1.,0.));
#1057=DIRECTION('',(0.,0.,-1.));
#1058=DIRECTION('center_axis',(0.,-1.,0.));
#1059=DIRECTION('ref_axis',(-1.,0.,0.));
#1060=DIRECTION('center_axis',(-1.,0.,0.));
#1061=DIRECTION('ref_axis',(0.,1.,0.));
#1062=CARTESIAN_POINT('',(0.,0.,0.));
#1063=CARTESIAN_POINT('Origin',(35.,47.5,-22.));
#1064=CARTESIAN_POINT('',(0.,5.,-22.));
#1065=CARTESIAN_POINT('',(5.,0.,-22.));
#1066=CARTESIAN_POINT('Origin',(5.,5.,-22.));
#1067=CARTESIAN_POINT('',(0.,90.,-22.));
#1068=CARTESIAN_POINT('',(0.,23.75,-22.));
#1069=CARTESIAN_POINT('',(5.,95.,-22.));
#1070=CARTESIAN_POINT('Origin',(5.,90.,-22.));
#1071=CARTESIAN_POINT('',(65.,95.,-22.));
#1072=CARTESIAN_POINT('',(17.5,95.,-22.));
#1073=CARTESIAN_POINT('',(70.,90.,-22.));
#1074=CARTESIAN_POINT('Origin',(65.,90.,-22.));
#1075=CARTESIAN_POINT('',(70.,5.,-22.));
#1076=CARTESIAN_POINT('',(70.,71.25,-22.));
#1077=CARTESIAN_POINT('',(65.,0.,-22.));
#1078=CARTESIAN_POINT('Origin',(65.,5.,-22.));
#1079=CARTESIAN_POINT('',(52.5,0.,-22.));
#1080=CARTESIAN_POINT('',(34.35,90.,-22.));
#1081=CARTESIAN_POINT('Origin',(37.,90.,-22.));
#1082=CARTESIAN_POINT('',(62.35,5.,-22.));
#1083=CARTESIAN_POINT('Origin',(65.,5.,-22.));
#1084=CARTESIAN_POINT('',(2.35,43.,-22.));
#1085=CARTESIAN_POINT('Origin',(5.,43.,-22.));
#1086=CARTESIAN_POINT('',(2.35000000000001,90.,-22.));
#1087=CARTESIAN_POINT('Origin',(5.00000000000001,90.,-22.));
#1088=CARTESIAN_POINT('',(2.35,20.,-22.));
#1089=CARTESIAN_POINT('Origin',(5.,20.,-22.));
#1090=CARTESIAN_POINT('',(62.35,72.5,-22.));
#1091=CARTESIAN_POINT('Origin',(65.,72.5,-22.));
#1092=CARTESIAN_POINT('Origin',(70.,95.,-8.));
#1093=CARTESIAN_POINT('',(70.,90.,-8.));
#1094=CARTESIAN_POINT('',(70.,90.,-8.));
#1095=CARTESIAN_POINT('',(70.,5.,-8.));
#1096=CARTESIAN_POINT('',(70.,0.,-8.));
#1097=CARTESIAN_POINT('',(70.,5.,-8.));
#1098=CARTESIAN_POINT('Origin',(65.,90.,-8.));
#1099=CARTESIAN_POINT('',(65.,95.,-8.));
#1100=CARTESIAN_POINT('',(65.,95.,-8.));
#1101=CARTESIAN_POINT('Origin',(65.,90.,-8.));
#1102=CARTESIAN_POINT('Origin',(0.,95.,-8.));
#1103=CARTESIAN_POINT('',(5.,95.,-8.));
#1104=CARTESIAN_POINT('',(5.,95.,-8.));
#1105=CARTESIAN_POINT('',(70.,95.,-8.));
#1106=CARTESIAN_POINT('Origin',(5.,90.,-8.));
#1107=CARTESIAN_POINT('',(0.,90.,-8.));
#1108=CARTESIAN_POINT('',(0.,90.,-8.));
#1109=CARTESIAN_POINT('Origin',(5.,90.,-8.));
#1110=CARTESIAN_POINT('Origin',(63.5512728013065,75.8501775331713,-21.));
#1111=CARTESIAN_POINT('',(63.9481843625924,74.9323206747682,-10.));
#1112=CARTESIAN_POINT('',(62.5512728013065,75.8501775331713,-10.));
#1113=CARTESIAN_POINT('Origin',(63.5512728013065,75.8501775331713,-10.));
#1114=CARTESIAN_POINT('',(62.5512728013065,75.8501775331713,-19.5));
#1115=CARTESIAN_POINT('',(62.5512728013065,75.8501775331713,-21.));
#1116=CARTESIAN_POINT('',(63.9481843625924,74.9323206747682,-19.5));
#1117=CARTESIAN_POINT('Origin',(63.5512728013065,75.8501775331713,-19.5));
#1118=CARTESIAN_POINT('',(63.9481843625924,74.9323206747682,-21.));
#1119=CARTESIAN_POINT('Ctrl Pts',(63.9481843625924,74.9323206747682,-9.99999999999999));
#1120=CARTESIAN_POINT('Ctrl Pts',(63.9481843625924,74.9323206747682,-9.88590935983553));
#1121=CARTESIAN_POINT('Ctrl Pts',(63.9771214874726,74.9450957542971,-9.6579714615616));
#1122=CARTESIAN_POINT('Ctrl Pts',(64.111820815191,74.999060328308,-9.32794673834715));
#1123=CARTESIAN_POINT('Ctrl Pts',(64.347890389737,75.0745891503103,-9.06970301720048));
#1124=CARTESIAN_POINT('Ctrl Pts',(64.5646056540792,75.1163198619848,-9.00000000000048));
#1125=CARTESIAN_POINT('Ctrl Pts',(64.6742117598503,75.1298977209352,-8.99999999999999));
#1126=CARTESIAN_POINT('Ctrl Pts',(63.7751949295985,74.8575143416162,-9.99999999999999));
#1127=CARTESIAN_POINT('Ctrl Pts',(63.7751949295985,74.8575143416162,-9.86246533742377));
#1128=CARTESIAN_POINT('Ctrl Pts',(63.8144004050276,74.8773745978114,-9.58802354382926));
#1129=CARTESIAN_POINT('Ctrl Pts',(63.9893608438035,74.9569839332605,-9.20531647557014));
#1130=CARTESIAN_POINT('Ctrl Pts',(64.2815366953974,75.0605874682406,-8.92103938062019));
#1131=CARTESIAN_POINT('Ctrl Pts',(64.5423607143866,75.1135577616125,-8.84862992565512));
#1132=CARTESIAN_POINT('Ctrl Pts',(64.6742117598499,75.1298977209351,-8.85040034982901));
#1133=CARTESIAN_POINT('Ctrl Pts',(63.3869506341734,74.8089552862246,-9.99999999999999));
#1134=CARTESIAN_POINT('Ctrl Pts',(63.3869506341734,74.8089552862246,-9.81570385068702));
#1135=CARTESIAN_POINT('Ctrl Pts',(63.4490930772151,74.8403721841314,-9.44852435701879));
#1136=CARTESIAN_POINT('Ctrl Pts',(63.7144049729702,74.9607070879538,-8.9606303746044));
#1137=CARTESIAN_POINT('Ctrl Pts',(64.130839105852,75.1074040729925,-8.62424940828861));
#1138=CARTESIAN_POINT('Ctrl Pts',(64.4864656772431,75.1772642474236,-8.54639628895991));
#1139=CARTESIAN_POINT('Ctrl Pts',(64.6657968558392,75.1978263142658,-8.55168728534636));
#1140=CARTESIAN_POINT('Ctrl Pts',(62.7641805390491,75.1007064993027,-9.99999999999999));
#1141=CARTESIAN_POINT('Ctrl Pts',(62.7641805390491,75.1007064993027,-9.75913192885521));
#1142=CARTESIAN_POINT('Ctrl Pts',(62.8567861706292,75.1359335665478,-9.27923253507119));
#1143=CARTESIAN_POINT('Ctrl Pts',(63.2492276058429,75.2696643411065,-8.64726041806041));
#1144=CARTESIAN_POINT('Ctrl Pts',(63.8572280230802,75.4309100002848,-8.21938736886266));
#1145=CARTESIAN_POINT('Ctrl Pts',(64.3680965330554,75.5072772953964,-8.12335853610449));
#1146=CARTESIAN_POINT('Ctrl Pts',(64.6246649404146,75.5298601856529,-8.13121720628817));
#1147=CARTESIAN_POINT('Ctrl Pts',(62.5512728013065,75.567470979186,-9.99999999999999));
#1148=CARTESIAN_POINT('Ctrl Pts',(62.5512728013065,75.567470979186,-9.75750680910684));
#1149=CARTESIAN_POINT('Ctrl Pts',(62.641447372552,75.5917660959047,-9.2739303516118));
#1150=CARTESIAN_POINT('Ctrl Pts',(63.0441535512466,75.6889649395619,-8.60487047238737));
#1151=CARTESIAN_POINT('Ctrl Pts',(63.7065260314414,75.814880375719,-8.1164414142181));
#1152=CARTESIAN_POINT('Ctrl Pts',(64.2863769226505,75.879417310835,-7.99577732634727));
#1153=CARTESIAN_POINT('Ctrl Pts',(64.5788602390866,75.899614721833,-7.9999999999999));
#1154=CARTESIAN_POINT('Ctrl Pts',(62.5512728013065,75.8501775331713,-9.99999999999999));
#1155=CARTESIAN_POINT('Ctrl Pts',(62.5512728013065,75.8501775331713,-9.77181871967096));
#1156=CARTESIAN_POINT('Ctrl Pts',(62.6309863905993,75.8677733974281,-9.3159429231232));
#1157=CARTESIAN_POINT('Ctrl Pts',(63.0020449160121,75.9421019616318,-8.65589347669423));
#1158=CARTESIAN_POINT('Ctrl Pts',(63.6523497817425,76.0461322258991,-8.13940603440099));
#1159=CARTESIAN_POINT('Ctrl Pts',(64.2493390004965,76.1036103759413,-8.00000000000096));
#1160=CARTESIAN_POINT('Ctrl Pts',(64.5512728013001,76.1223119552504,-7.99999999999999));
#1161=CARTESIAN_POINT('',(64.6742117598503,75.1298977209352,-8.99999999999999));
#1162=CARTESIAN_POINT('',(64.5512728013033,76.1223119552504,-8.));
#1163=CARTESIAN_POINT('Origin',(64.5512728013033,76.1223119552504,-9.));
#1164=CARTESIAN_POINT('Ctrl Pts',(64.5512728013001,76.1223119552504,-7.99999999999999));
#1165=CARTESIAN_POINT('Ctrl Pts',(64.2493390004965,76.1036103759413,-8.00000000000096));
#1166=CARTESIAN_POINT('Ctrl Pts',(63.6523497817425,76.0461322258991,-8.13940603440099));
#1167=CARTESIAN_POINT('Ctrl Pts',(63.0020449160121,75.9421019616318,-8.65589347669423));
#1168=CARTESIAN_POINT('Ctrl Pts',(62.6309863905993,75.8677733974281,-9.3159429231232));
#1169=CARTESIAN_POINT('Ctrl Pts',(62.5512728013065,75.8501775331713,-9.77181871967096));
#1170=CARTESIAN_POINT('Ctrl Pts',(62.5512728013065,75.8501775331713,-9.99999999999999));
#1171=CARTESIAN_POINT('Ctrl Pts',(63.9481843625924,74.9323206747682,-9.99999999999999));
#1172=CARTESIAN_POINT('Ctrl Pts',(63.9481843625924,74.9323206747682,-9.88590935983553));
#1173=CARTESIAN_POINT('Ctrl Pts',(63.9771214874726,74.9450957542971,-9.6579714615616));
#1174=CARTESIAN_POINT('Ctrl Pts',(64.111820815191,74.999060328308,-9.32794673834715));
#1175=CARTESIAN_POINT('Ctrl Pts',(64.347890389737,75.0745891503103,-9.06970301720048));
#1176=CARTESIAN_POINT('Ctrl Pts',(64.5646056540792,75.1163198619848,-9.00000000000048));
#1177=CARTESIAN_POINT('Ctrl Pts',(64.6742117598503,75.1298977209352,-8.99999999999999));
#1178=CARTESIAN_POINT('Origin',(65.,72.5,-8.99999999999999));
#1179=CARTESIAN_POINT('',(64.6742117598527,69.8701022790645,-8.99999999999999));
#1180=CARTESIAN_POINT('',(64.5512728013065,68.8776880447492,-8.));
#1181=CARTESIAN_POINT('Origin',(64.5512728013065,68.8776880447492,-8.99999999999999));
#1182=CARTESIAN_POINT('Origin',(65.,72.5,-8.));
#1183=CARTESIAN_POINT('Origin',(65.,72.5,-8.99999999999999));
#1184=CARTESIAN_POINT('Ctrl Pts',(64.6742117598527,69.8701022790645,-9.));
#1185=CARTESIAN_POINT('Ctrl Pts',(64.5098024776583,69.8904690827936,-9.));
#1186=CARTESIAN_POINT('Ctrl Pts',(64.2423952694921,69.9531240053745,-9.13195710124067));
#1187=CARTESIAN_POINT('Ctrl Pts',(64.0005471726688,70.0444637296801,-9.54510123030058));
#1188=CARTESIAN_POINT('Ctrl Pts',(63.9481843625924,70.0676793252318,-9.84787903214322));
#1189=CARTESIAN_POINT('Ctrl Pts',(63.9481843625924,70.0676793252318,-10.));
#1190=CARTESIAN_POINT('Ctrl Pts',(64.6742117598527,69.8701022790645,-8.85040034982905));
#1191=CARTESIAN_POINT('Ctrl Pts',(64.4764350430477,69.8946122364651,-8.84774471157197));
#1192=CARTESIAN_POINT('Ctrl Pts',(64.1541331095898,69.9754048985992,-8.98600434320283));
#1193=CARTESIAN_POINT('Ctrl Pts',(63.8464652863791,70.1061293301217,-9.45311945423114));
#1194=CARTESIAN_POINT('Ctrl Pts',(63.7751949295985,70.1424856583838,-9.81662031210634));
#1195=CARTESIAN_POINT('Ctrl Pts',(63.7751949295985,70.1424856583838,-10.));
#1196=CARTESIAN_POINT('Ctrl Pts',(64.665796924018,69.8021742360705,-8.55168653338572));
#1197=CARTESIAN_POINT('Ctrl Pts',(64.3967999539984,69.8330173595093,-8.5437500328416));
#1198=CARTESIAN_POINT('Ctrl Pts',(63.9556757948427,69.9409126490069,-8.69467125502667));
#1199=CARTESIAN_POINT('Ctrl Pts',(63.5005064124088,70.1332319122015,-9.26967174205656));
#1200=CARTESIAN_POINT('Ctrl Pts',(63.386949141201,70.1910461660642,-9.75427161627507));
#1201=CARTESIAN_POINT('Ctrl Pts',(63.386949141201,70.1910461660642,-9.99999999999999));
#1202=CARTESIAN_POINT('Ctrl Pts',(64.6246650180549,69.4701404410473,-8.13121601029584));
#1203=CARTESIAN_POINT('Ctrl Pts',(64.239812117836,69.5040148018851,-8.11942799616159));
#1204=CARTESIAN_POINT('Ctrl Pts',(63.6038864675258,69.6217648796947,-8.3066487905224));
#1205=CARTESIAN_POINT('Ctrl Pts',(62.9334405231059,69.8344197727341,-9.04569256092966));
#1206=CARTESIAN_POINT('Ctrl Pts',(62.764177895312,69.8992952410841,-9.67884233048826));
#1207=CARTESIAN_POINT('Ctrl Pts',(62.764177895312,69.8992952410841,-9.99999999999999));
#1208=CARTESIAN_POINT('Ctrl Pts',(64.5788602390928,69.1003852781666,-7.99999999999999));
#1209=CARTESIAN_POINT('Ctrl Pts',(64.1401349347786,69.130681417428,-7.99366598476029));
#1210=CARTESIAN_POINT('Ctrl Pts',(63.4211709410746,69.2287261699271,-8.22535607779544));
#1211=CARTESIAN_POINT('Ctrl Pts',(62.7155276596406,69.3880063800946,-9.03633652764863));
#1212=CARTESIAN_POINT('Ctrl Pts',(62.5512728013065,69.432529020814,-9.67667550252894));
#1213=CARTESIAN_POINT('Ctrl Pts',(62.5512728013065,69.432529020814,-10.));
#1214=CARTESIAN_POINT('Ctrl Pts',(64.5512728013065,68.8776880447492,-7.99999999999999));
#1215=CARTESIAN_POINT('Ctrl Pts',(64.0983717597893,68.9057404347913,-8.));
#1216=CARTESIAN_POINT('Ctrl Pts',(63.3617405825772,68.9920387243838,-8.26391420248146));
#1217=CARTESIAN_POINT('Ctrl Pts',(62.6955175234037,69.117846269182,-9.09020246060103));
#1218=CARTESIAN_POINT('Ctrl Pts',(62.5512728013065,69.1498224668287,-9.69575806428645));
#1219=CARTESIAN_POINT('Ctrl Pts',(62.5512728013065,69.1498224668287,-10.));
#1220=CARTESIAN_POINT('',(63.9481843625924,70.0676793252318,-10.));
#1221=CARTESIAN_POINT('',(62.5512728013065,69.1498224668287,-10.));
#1222=CARTESIAN_POINT('Origin',(63.5512728013065,69.1498224668287,-10.));
#1223=CARTESIAN_POINT('Ctrl Pts',(62.5512728013065,69.1498224668287,-10.));
#1224=CARTESIAN_POINT('Ctrl Pts',(62.5512728013065,69.1498224668287,-9.69575806428645));
#1225=CARTESIAN_POINT('Ctrl Pts',(62.6955175234037,69.117846269182,-9.09020246060103));
#1226=CARTESIAN_POINT('Ctrl Pts',(63.3617405825772,68.9920387243838,-8.26391420248146));
#1227=CARTESIAN_POINT('Ctrl Pts',(64.0983717597893,68.9057404347913,-8.));
#1228=CARTESIAN_POINT('Ctrl Pts',(64.5512728013065,68.8776880447492,-7.99999999999999));
#1229=CARTESIAN_POINT('Ctrl Pts',(64.6742117598527,69.8701022790645,-9.));
#1230=CARTESIAN_POINT('Ctrl Pts',(64.5098024776583,69.8904690827936,-9.));
#1231=CARTESIAN_POINT('Ctrl Pts',(64.2423952694921,69.9531240053745,-9.13195710124067));
#1232=CARTESIAN_POINT('Ctrl Pts',(64.0005471726688,70.0444637296801,-9.54510123030058));
#1233=CARTESIAN_POINT('Ctrl Pts',(63.9481843625924,70.0676793252318,-9.84787903214322));
#1234=CARTESIAN_POINT('Ctrl Pts',(63.9481843625924,70.0676793252318,-10.));
#1235=CARTESIAN_POINT('Origin',(63.5512728013065,69.1498224668287,-21.));
#1236=CARTESIAN_POINT('',(63.9481843625924,70.0676793252318,-19.5));
#1237=CARTESIAN_POINT('',(62.5512728013065,69.1498224668287,-19.5));
#1238=CARTESIAN_POINT('Origin',(63.5512728013065,69.1498224668287,-19.5));
#1239=CARTESIAN_POINT('',(62.5512728013065,69.1498224668287,-21.));
#1240=CARTESIAN_POINT('',(63.9481843625924,70.0676793252318,-21.));
#1241=CARTESIAN_POINT('Origin',(65.,72.5,-21.));
#1242=CARTESIAN_POINT('',(62.35,72.5,-19.5));
#1243=CARTESIAN_POINT('',(62.35,72.5,-21.));
#1244=CARTESIAN_POINT('Origin',(65.,72.5,-19.5));
#1245=CARTESIAN_POINT('Origin',(65.,72.5,-19.5));
#1246=CARTESIAN_POINT('Origin',(5.,20.,-21.));
#1247=CARTESIAN_POINT('',(2.35,20.,-8.));
#1248=CARTESIAN_POINT('',(2.35,20.,-21.));
#1249=CARTESIAN_POINT('Origin',(5.,20.,-8.));
#1250=CARTESIAN_POINT('Origin',(5.00000000000001,90.,-21.));
#1251=CARTESIAN_POINT('',(2.35000000000001,90.,-8.));
#1252=CARTESIAN_POINT('',(2.35000000000001,90.,-21.));
#1253=CARTESIAN_POINT('Origin',(5.00000000000001,90.,-8.));
#1254=CARTESIAN_POINT('Origin',(5.,43.,-21.));
#1255=CARTESIAN_POINT('',(2.35,43.,-8.));
#1256=CARTESIAN_POINT('',(2.35,43.,-21.));
#1257=CARTESIAN_POINT('Origin',(5.,43.,-8.));
#1258=CARTESIAN_POINT('Origin',(65.,5.,-21.));
#1259=CARTESIAN_POINT('',(62.35,5.,-8.));
#1260=CARTESIAN_POINT('',(62.35,5.,-21.));
#1261=CARTESIAN_POINT('Origin',(65.,5.,-8.));
#1262=CARTESIAN_POINT('Origin',(37.,90.,-21.));
#1263=CARTESIAN_POINT('',(34.35,90.,-8.));
#1264=CARTESIAN_POINT('',(34.35,90.,-21.));
#1265=CARTESIAN_POINT('Origin',(37.,90.,-8.));
#1266=CARTESIAN_POINT('Origin',(36.5512728013065,49.,-19.5));
#1267=CARTESIAN_POINT('',(62.5512728013065,85.,-19.5));
#1268=CARTESIAN_POINT('',(62.5512728013065,31.,-19.5));
#1269=CARTESIAN_POINT('',(10.5512728013065,85.,-19.5));
#1270=CARTESIAN_POINT('',(49.5512728013065,85.,-19.5));
#1271=CARTESIAN_POINT('',(10.5512728013065,13.,-19.5));
#1272=CARTESIAN_POINT('',(10.5512728013065,67.,-19.5));
#1273=CARTESIAN_POINT('',(17.6339745962156,13.,-19.5));
#1274=CARTESIAN_POINT('',(23.5512728013065,13.,-19.5));
#1275=CARTESIAN_POINT('',(17.6339745962156,28.,-19.5));
#1276=CARTESIAN_POINT('',(17.6339745962156,0.,-19.5));
#1277=CARTESIAN_POINT('',(44.3660254037844,28.,-19.5));
#1278=CARTESIAN_POINT('',(30.7756364006533,28.,-19.5));
#1279=CARTESIAN_POINT('',(44.3660254037844,13.,-19.5));
#1280=CARTESIAN_POINT('',(44.3660254037844,0.,-19.5));
#1281=CARTESIAN_POINT('',(62.5512728013065,13.,-19.5));
#1282=CARTESIAN_POINT('',(23.5512728013065,13.,-19.5));
#1283=CARTESIAN_POINT('',(62.5512728013065,31.,-19.5));
#1284=CARTESIAN_POINT('Origin',(62.5512728013065,13.,-8.));
#1285=CARTESIAN_POINT('',(62.5512728013065,85.,-10.));
#1286=CARTESIAN_POINT('',(62.5512728013065,30.25,-10.));
#1287=CARTESIAN_POINT('',(62.5512728013065,85.,-17.5));
#1288=CARTESIAN_POINT('Origin',(64.5512728013065,30.25,-10.));
#1289=CARTESIAN_POINT('',(64.5512728013065,85.,-8.));
#1290=CARTESIAN_POINT('',(64.5512728013065,30.25,-8.));
#1291=CARTESIAN_POINT('Origin',(64.5512728013065,85.,-10.));
#1292=CARTESIAN_POINT('Origin',(43.5,0.,-19.));
#1293=CARTESIAN_POINT('',(43.5,28.,-20.));
#1294=CARTESIAN_POINT('Origin',(43.5,28.,-19.));
#1295=CARTESIAN_POINT('',(43.5,0.,-20.));
#1296=CARTESIAN_POINT('',(43.5,0.,-20.));
#1297=CARTESIAN_POINT('',(44.5,0.,-19.));
#1298=CARTESIAN_POINT('Origin',(43.5,0.,-19.));
#1299=CARTESIAN_POINT('',(44.5,13.,-19.));
#1300=CARTESIAN_POINT('',(44.5,0.,-19.));
#1301=CARTESIAN_POINT('Origin',(43.5,13.,-19.));
#1302=CARTESIAN_POINT('Origin',(44.5,0.,-12.));
#1303=CARTESIAN_POINT('',(44.5,0.,-13.));
#1304=CARTESIAN_POINT('',(44.5,0.,-9.99999999999998));
#1305=CARTESIAN_POINT('',(44.5,13.,-13.));
#1306=CARTESIAN_POINT('',(44.5,0.,-13.));
#1307=CARTESIAN_POINT('',(44.5,13.,-14.75));
#1308=CARTESIAN_POINT('Origin',(43.5,0.,-13.));
#1309=CARTESIAN_POINT('',(43.5,0.,-12.));
#1310=CARTESIAN_POINT('Origin',(43.5,0.,-13.));
#1311=CARTESIAN_POINT('',(43.5,13.,-12.));
#1312=CARTESIAN_POINT('',(43.5,0.,-12.));
#1313=CARTESIAN_POINT('Origin',(43.5,13.,-13.));
#1314=CARTESIAN_POINT('Origin',(17.5,0.,-12.));
#1315=CARTESIAN_POINT('',(18.5,0.,-12.));
#1316=CARTESIAN_POINT('',(43.75,0.,-12.));
#1317=CARTESIAN_POINT('',(18.5,13.,-12.));
#1318=CARTESIAN_POINT('',(18.5,0.,-12.));
#1319=CARTESIAN_POINT('',(14.0256364006533,13.,-12.));
#1320=CARTESIAN_POINT('Origin',(18.5,0.,-19.));
#1321=CARTESIAN_POINT('',(17.5,13.,-19.));
#1322=CARTESIAN_POINT('Origin',(18.5,13.,-19.));
#1323=CARTESIAN_POINT('',(17.5,0.,-19.));
#1324=CARTESIAN_POINT('',(17.5,0.,-19.));
#1325=CARTESIAN_POINT('',(18.5,0.,-20.));
#1326=CARTESIAN_POINT('Origin',(18.5,0.,-19.));
#1327=CARTESIAN_POINT('',(18.5,28.,-20.));
#1328=CARTESIAN_POINT('',(18.5,0.,-20.));
#1329=CARTESIAN_POINT('Origin',(18.5,28.,-19.));
#1330=CARTESIAN_POINT('Origin',(25.,28.,-16.));
#1331=CARTESIAN_POINT('',(32.5,28.,-20.));
#1332=CARTESIAN_POINT('Origin',(44.5,0.,-20.));
#1333=CARTESIAN_POINT('',(57.25,0.,-20.));
#1334=CARTESIAN_POINT('Origin',(18.5,0.,-13.));
#1335=CARTESIAN_POINT('',(17.5,0.,-13.));
#1336=CARTESIAN_POINT('Origin',(18.5,0.,-13.));
#1337=CARTESIAN_POINT('',(17.5,13.,-13.));
#1338=CARTESIAN_POINT('',(17.5,0.,-13.));
#1339=CARTESIAN_POINT('Origin',(18.5,13.,-13.));
#1340=CARTESIAN_POINT('Origin',(17.5,0.,-20.));
#1341=CARTESIAN_POINT('',(17.5,13.,-18.75));
#1342=CARTESIAN_POINT('',(17.5,0.,-14.));
#1343=CARTESIAN_POINT('Origin',(64.5512728013065,30.25,-10.));
#1344=CARTESIAN_POINT('',(62.5512728013065,13.,-10.));
#1345=CARTESIAN_POINT('',(62.5512728013065,30.25,-10.));
#1346=CARTESIAN_POINT('',(64.5512728013065,13.,-8.));
#1347=CARTESIAN_POINT('Origin',(64.5512728013065,13.,-10.));
#1348=CARTESIAN_POINT('',(64.5512728013065,30.25,-8.));
#1349=CARTESIAN_POINT('Origin',(35.,47.5,-8.));
#1350=CARTESIAN_POINT('',(5.,0.,-8.));
#1351=CARTESIAN_POINT('',(0.,5.,-8.));
#1352=CARTESIAN_POINT('Origin',(5.,5.,-8.));
#1353=CARTESIAN_POINT('',(65.,0.,-8.));
#1354=CARTESIAN_POINT('',(0.,0.,-8.));
#1355=CARTESIAN_POINT('Origin',(65.,5.,-8.));
#1356=CARTESIAN_POINT('',(0.,95.,-8.));
#1357=CARTESIAN_POINT('',(10.5512728013065,13.,-8.));
#1358=CARTESIAN_POINT('',(10.5512728013065,13.,-8.));
#1359=CARTESIAN_POINT('',(10.5512728013065,85.,-8.));
#1360=CARTESIAN_POINT('',(10.5512728013065,85.,-8.));
#1361=CARTESIAN_POINT('',(62.5512728013065,85.,-8.));
#1362=CARTESIAN_POINT('Origin',(5.,5.,-8.));
#1363=CARTESIAN_POINT('',(5.,0.,-8.));
#1364=CARTESIAN_POINT('',(0.,5.,-8.));
#1365=CARTESIAN_POINT('Origin',(70.,0.,-8.));
#1366=CARTESIAN_POINT('',(65.,0.,-8.));
#1367=CARTESIAN_POINT('Origin',(65.,5.,-8.));
#1368=CARTESIAN_POINT('Origin',(62.5512728013065,13.,-8.));
#1369=CARTESIAN_POINT('',(62.5512728013065,13.,-17.5));
#1370=CARTESIAN_POINT('Origin',(10.5512728013065,13.,-8.));
#1371=CARTESIAN_POINT('',(10.5512728013065,13.,-8.));
#1372=CARTESIAN_POINT('Origin',(10.5512728013065,85.,-8.));
#1373=CARTESIAN_POINT('',(10.5512728013065,85.,-8.));
#1374=CARTESIAN_POINT('Origin',(62.5512728013065,85.,-8.));
#1375=CARTESIAN_POINT('Origin',(0.,0.,-8.));
#1376=UNCERTAINTY_MEASURE_WITH_UNIT(LENGTH_MEASURE(0.01),#1380,
'DISTANCE_ACCURACY_VALUE',
'Maximum model space distance between geometric entities at asserted c
onnectivities');
#1377=UNCERTAINTY_MEASURE_WITH_UNIT(LENGTH_MEASURE(0.01),#1380,
'DISTANCE_ACCURACY_VALUE',
'Maximum model space distance between geometric entities at asserted c
onnectivities');
#1378=(
GEOMETRIC_REPRESENTATION_CONTEXT(3)
GLOBAL_UNCERTAINTY_ASSIGNED_CONTEXT((#1376))
GLOBAL_UNIT_ASSIGNED_CONTEXT((#1380,#1382,#1383))
REPRESENTATION_CONTEXT('','3D')
);
#1379=(
GEOMETRIC_REPRESENTATION_CONTEXT(3)
GLOBAL_UNCERTAINTY_ASSIGNED_CONTEXT((#1377))
GLOBAL_UNIT_ASSIGNED_CONTEXT((#1380,#1382,#1383))
REPRESENTATION_CONTEXT('','3D')
);
#1380=(
LENGTH_UNIT()
NAMED_UNIT(*)
SI_UNIT(.MILLI.,.METRE.)
);
#1381=(
LENGTH_UNIT()
NAMED_UNIT(*)
SI_UNIT($,.METRE.)
);
#1382=(
NAMED_UNIT(*)
PLANE_ANGLE_UNIT()
SI_UNIT($,.RADIAN.)
);
#1383=(
NAMED_UNIT(*)
SI_UNIT($,.STERADIAN.)
SOLID_ANGLE_UNIT()
);
#1384=SHAPE_DEFINITION_REPRESENTATION(#1385,#1386);
#1385=PRODUCT_DEFINITION_SHAPE('',$,#1388);
#1386=SHAPE_REPRESENTATION('',(#766),#1378);
#1387=PRODUCT_DEFINITION_CONTEXT('part definition',#1392,'design');
#1388=PRODUCT_DEFINITION('digital_carb_sync','digital_carb_sync v3',#1389,
#1387);
#1389=PRODUCT_DEFINITION_FORMATION('',$,#1394);
#1390=PRODUCT_RELATED_PRODUCT_CATEGORY('digital_carb_sync v3',
'digital_carb_sync v3',(#1394));
#1391=APPLICATION_PROTOCOL_DEFINITION('international standard',
'automotive_design',2009,#1392);
#1392=APPLICATION_CONTEXT(
'Core Data for Automotive Mechanical Design Process');
#1393=PRODUCT_CONTEXT('part definition',#1392,'mechanical');
#1394=PRODUCT('digital_carb_sync','digital_carb_sync v3',$,(#1393));
#1395=PRESENTATION_STYLE_ASSIGNMENT((#1396));
#1396=SURFACE_STYLE_USAGE(.BOTH.,#1397);
#1397=SURFACE_SIDE_STYLE('',(#1398));
#1398=SURFACE_STYLE_FILL_AREA(#1399);
#1399=FILL_AREA_STYLE('Plastic - Glossy (Grey)',(#1400));
#1400=FILL_AREA_STYLE_COLOUR('Plastic - Glossy (Grey)',#1401);
#1401=COLOUR_RGB('Plastic - Glossy (Grey)',0.701960784313725,0.701960784313725,
0.701960784313725);
ENDSEC;
END-ISO-10303-21;
